<svg id="Layer_1" xmlns="http://www.w3.org/2000/svg" viewBox="0 0 60 60"><style>.st0{fill:#d0e8f9}.st1{fill:none;stroke:#36aeea;stroke-width:2;stroke-linecap:round;stroke-linejoin:round}.st2{fill:#fff}</style><title/><g id="Page-1"><g id="Delivery-2---Webby" transform="translate(-720 -404)"><g id="_x36_--Call-Center-Operator--_x28_shipping_x2C_-transport_x2C_-delivery_x29_" transform="translate(720 405)"><path id="Fill-261" class="st0" d="M12.8 29h-1.5C10 29 9 28 9 26.8v-7.5C9 18 10 17 11.2 17h1.5c1.2 0 2.2 1 2.2 2.2v7.5C15 28 14 29 12.8 29"/><path id="Stroke-262" class="st1" d="M12.8 29h-1.5C10 29 9 28 9 26.8v-7.5C9 18 10 17 11.2 17h1.5c1.2 0 2.2 1 2.2 2.2v7.5C15 28 14 29 12.8 29z"/><path id="Fill-263" class="st0" d="M34 53h-8l4-9z"/><path id="Stroke-264" class="st1" d="M34 53h-8l4-9z"/><path id="Fill-265" class="st0" d="M25 58l1-5h8l1 5z"/><path id="Stroke-266" class="st1" d="M25 58l1-5h8l1 5z"/><path id="Fill-267" class="st0" d="M19.3 38.1L19 38l-1 4 8 11 4-9c-4.2 0-8-2.4-10.7-5.9"/><path id="Stroke-268" class="st1" d="M19.3 38.1L19 38l-1 4 8 11 4-9c-4.2 0-8-2.4-10.7-5.9z"/><path id="Fill-269" class="st0" d="M40.7 38.1C38 41.6 34.2 44 30 44l4 9 8-11-1-4-.3.1z"/><path id="Stroke-270" class="st1" d="M40.7 38.1C38 41.6 34.2 44 30 44l4 9 8-11-1-4-.3.1z"/><path id="Fill-271" class="st2" d="M56.6 49.7C51.1 46.8 45.8 44.6 41 44h-.5L34 53l1 5h-.4H59v-4.3c0-1.7-.9-3.2-2.4-4"/><path id="Stroke-272" class="st1" d="M56.6 49.7C51.1 46.8 45.8 44.6 41 44h-.5L34 53l1 5h-.4H59v-4.3c0-1.7-.9-3.2-2.4-4z"/><path id="Fill-273" class="st2" d="M19.5 44H19c-4.8.6-10.1 2.8-15.6 5.7-1.5.8-2.4 2.3-2.4 4V58h24l1-5-6.5-9z"/><path id="Stroke-274" class="st1" d="M19.5 44H19c-4.8.6-10.1 2.8-15.6 5.7-1.5.8-2.4 2.3-2.4 4V58h24l1-5-6.5-9z"/><path id="Fill-275" class="st2" d="M25 58h.4z"/><path id="Stroke-276" class="st1" d="M25 58h.4z"/><path id="Fill-277" class="st0" d="M47.2 29h1.5c1.2 0 2.2-1 2.2-2.2v-7.5c0-1.2-1-2.2-2.2-2.2h-1.5C46 17 45 18 45 19.2v7.5c0 1.3 1 2.3 2.2 2.3"/><path id="Stroke-278" class="st1" d="M47.2 29h1.5c1.2 0 2.2-1 2.2-2.2v-7.5c0-1.2-1-2.2-2.2-2.2h-1.5C46 17 45 18 45 19.2v7.5c0 1.3 1 2.3 2.2 2.3z"/><path id="Stroke-279" class="st1" d="M48 17C48 3.9 38.7 0 30 0S12 3.9 12 17"/><path id="Fill-280" class="st2" d="M15 19c0-8.3 6.7-15 15-15s15 6.7 15 15v7c0 8.8-6.7 18-15 18s-15-9.2-15-18v-7z"/><path id="Stroke-281" class="st1" d="M15 19c0-8.3 6.7-15 15-15s15 6.7 15 15v7c0 8.8-6.7 18-15 18s-15-9.2-15-18v-7z"/><path id="Stroke-286" class="st1" d="M48 29c0 4.4-2.7 8-17 8"/></g></g></g></svg>