<svg id="Layer_1" xmlns="http://www.w3.org/2000/svg" viewBox="0 0 61 56"><style>.st0{fill:#fff}.st1{fill:none;stroke:#36aeea;stroke-width:2;stroke-linecap:round;stroke-linejoin:round}.st2{fill:#d0e8f9}</style><title/><g id="Page-1"><g id="Hotel-Services---Webby" transform="translate(-119 -1124)"><g id="_x36_1--Calendar--_x28_hotel_x2C_-service_x2C_-travel_x29_" transform="translate(120 1125)"><path id="Fill-997" class="st0" d="M0 52V14h58v38c0 1.1-.9 2-2 2H2c-1.1 0-2-.9-2-2"/><path id="Stroke-998" class="st1" d="M0 52V14h58v38c0 1.1-.9 2-2 2H2c-1.1 0-2-.9-2-2z"/><path id="Fill-999" class="st0" d="M0 14V6c0-1.1.9-2 2-2h54c1.1 0 2 .9 2 2v8H0z"/><path id="Stroke-1000" class="st1" d="M0 14V6c0-1.1.9-2 2-2h54c1.1 0 2 .9 2 2v8H0z"/><path id="Stroke-1001" class="st1" d="M51 8c2.2 0 4-1.8 4-4s-1.8-4-4-4-4 1.8-4 4"/><path id="Stroke-1002" class="st1" d="M40 8c2.2 0 4-1.8 4-4s-1.8-4-4-4-4 1.8-4 4"/><path id="Stroke-1003" class="st1" d="M29 8c2.2 0 4-1.8 4-4s-1.8-4-4-4-4 1.8-4 4"/><path id="Stroke-1004" class="st1" d="M18 8c2.2 0 4-1.8 4-4s-1.8-4-4-4-4 1.8-4 4"/><path id="Stroke-1005" class="st1" d="M7 8c2.2 0 4-1.8 4-4S9.2 0 7 0 3 1.8 3 4"/><path id="Fill-1006" class="st2" d="M8 26h6v-6H8z"/><path id="Stroke-1007" class="st1" d="M8 26h6v-6H8z"/><path id="Fill-1008" class="st2" d="M20 26h6v-6h-6z"/><path id="Stroke-1009" class="st1" d="M20 26h6v-6h-6z"/><path id="Fill-1010" class="st2" d="M32 26h6v-6h-6z"/><path id="Stroke-1011" class="st1" d="M32 26h6v-6h-6z"/><path id="Fill-1012" class="st2" d="M44 26h6v-6h-6z"/><path id="Stroke-1013" class="st1" d="M44 26h6v-6h-6z"/><path id="Fill-1014" class="st2" d="M8 37h6v-6H8z"/><path id="Stroke-1015" class="st1" d="M8 37h6v-6H8z"/><path id="Fill-1016" class="st2" d="M20 37h6v-6h-6z"/><path id="Stroke-1017" class="st1" d="M20 37h6v-6h-6z"/><path id="Fill-1018" class="st2" d="M32 37h6v-6h-6z"/><path id="Stroke-1019" class="st1" d="M32 37h6v-6h-6z"/><path id="Fill-1020" class="st2" d="M44 37h6v-6h-6z"/><path id="Stroke-1021" class="st1" d="M44 37h6v-6h-6z"/><path id="Fill-1022" class="st2" d="M8 48h6v-6H8z"/><path id="Stroke-1023" class="st1" d="M8 48h6v-6H8z"/><path id="Fill-1024" class="st2" d="M20 48h6v-6h-6z"/><path id="Stroke-1025" class="st1" d="M20 48h6v-6h-6z"/><path id="Fill-1026" class="st2" d="M32 48h6v-6h-6z"/><path id="Stroke-1027" class="st1" d="M32 48h6v-6h-6z"/><path id="Fill-1028" class="st2" d="M44 48h6v-6h-6z"/><path id="Stroke-1029" class="st1" d="M44 48h6v-6h-6z"/></g></g></g></svg>