<svg id="Layer_1" xmlns="http://www.w3.org/2000/svg" viewBox="0 0 60 57"><style>.st0{fill:#fff}.st1{fill:none;stroke:#36aeea;stroke-width:2;stroke-linecap:round;stroke-linejoin:round}.st2{fill:#d0e8f9}</style><title/><g id="Page-1"><g id="Icons" transform="translate(-1081 -712)"><g id="_x33_9--Computer--_x28_marketing_x2C_-business_x2C_-finance_x29_" transform="translate(1082 713)"><path id="Fill-797" class="st0" d="M39.8 52H18.2c-.2 0-.3-.3-.1-.4l1.8-1.3c1.9-1.4 2.9-3.9 2.3-6.3h13.6c-.6 2.4.4 4.9 2.3 6.3l1.8 1.3c.2.1.1.4-.1.4"/><path id="Stroke-798" class="st1" d="M39.8 52H18.2c-.2 0-.3-.3-.1-.4l1.8-1.3c1.9-1.4 2.9-3.9 2.3-6.3h13.6c-.6 2.4.4 4.9 2.3 6.3l1.8 1.3c.2.1.1.4-.1.4z"/><path id="Fill-799" class="st0" d="M58 35H0V3.5C0 1.6 1.6 0 3.5 0h51C56.4 0 58 1.6 58 3.5V35z"/><path id="Stroke-800" class="st1" d="M58 35H0V3.5C0 1.6 1.6 0 3.5 0h51C56.4 0 58 1.6 58 3.5V35z"/><path id="Fill-801" class="st2" d="M40.5 55h-23c-.8 0-1.5-.7-1.5-1.5s.7-1.5 1.5-1.5h23c.8 0 1.5.7 1.5 1.5s-.7 1.5-1.5 1.5"/><path id="Stroke-802" class="st1" d="M40.5 55h-23c-.8 0-1.5-.7-1.5-1.5s.7-1.5 1.5-1.5h23c.8 0 1.5.7 1.5 1.5s-.7 1.5-1.5 1.5z"/><path id="Fill-803" class="st2" d="M0 40.5C0 42.4 1.6 44 3.5 44h51c1.9 0 3.5-1.6 3.5-3.5V35H0v5.5z"/><path id="Stroke-804" class="st1" d="M0 40.5C0 42.4 1.6 44 3.5 44h51c1.9 0 3.5-1.6 3.5-3.5V35H0v5.5z"/><path id="Fill-809" class="st2" d="M30 25c0 1.1-.9 2-2 2s-2-.9-2-2 .9-2 2-2 2 .9 2 2"/><path id="Stroke-810" class="st1" d="M30 25c0 1.1-.9 2-2 2s-2-.9-2-2 .9-2 2-2 2 .9 2 2z"/><path id="Stroke-814" class="st1" d="M34 19l-4 4"/><path id="Fill-815" class="st2" d="M44 22h-4c0-6.1-4.9-11-11-11s-11 4.9-11 11h-4c0-8.3 6.7-15 15-15s15 6.7 15 15"/><path id="Stroke-816" class="st1" d="M44 22h-4c0-6.1-4.9-11-11-11s-11 4.9-11 11h-4c0-8.3 6.7-15 15-15s15 6.7 15 15z"/></g></g></g></svg>