<svg id="Layer_1" xmlns="http://www.w3.org/2000/svg" viewBox="0 0 42 61"><style>.st0{fill:#d0e8f9}.st1{fill:none;stroke:#36aeea;stroke-width:2;stroke-linecap:round;stroke-linejoin:round}.st2{fill:#fff}</style><title/><g id="Page-1"><g id="Icons" transform="translate(-354 -706)"><g id="_x33_3--Check-List--_x28_document_x2C_-paper_x2C_-write_x2C_-note_x29_" transform="translate(355 707)"><path id="Fill-247" class="st0" d="M25 4V2c0-1.1-.9-2-2-2h-6c-1.1 0-2 .9-2 2v2h-4c-.6 0-1 .4-1 1v7c0 .6.4 1 1 1h18c.6 0 1-.4 1-1V5c0-.6-.4-1-1-1h-4z"/><path id="Stroke-248" class="st1" d="M25 4V2c0-1.1-.9-2-2-2h-6c-1.1 0-2 .9-2 2v2h-4c-.6 0-1 .4-1 1v7c0 .6.4 1 1 1h18c.6 0 1-.4 1-1V5c0-.6-.4-1-1-1h-4z"/><path id="Fill-249" class="st2" d="M30 7v5c0 .6-.4 1-1 1H11c-.6 0-1-.5-1-1V7H4c-2.2 0-4 1.8-4 4v43c0 2.2 1.8 4 4 4h32c2.2 0 4-1.8 4-4V11c0-2.2-1.8-4-4-4h-6z"/><path id="Stroke-250" class="st1" d="M30 7v5c0 .6-.4 1-1 1H11c-.6 0-1-.5-1-1V7H4c-2.2 0-4 1.8-4 4v43c0 2.2 1.8 4 4 4h32c2.2 0 4-1.8 4-4V11c0-2.2-1.8-4-4-4h-6z"/><path id="Stroke-275" class="st1" d="M23 48H7"/><path id="Stroke-276" class="st1" d="M23 39H7"/><path id="Stroke-277" class="st1" d="M23 30H7"/><path id="Stroke-278" class="st1" d="M23 21H7"/><path id="Stroke-279" class="st1" d="M28 21l2 2"/><path id="Stroke-280" class="st1" d="M34 18l-4 5"/><path id="Stroke-281" class="st1" d="M28 30l2 2"/><path id="Stroke-282" class="st1" d="M34 27l-4 5"/><path id="Stroke-283" class="st1" d="M28 39l2 2"/><path id="Stroke-284" class="st1" d="M34 36l-4 5"/><path id="Stroke-285" class="st1" d="M28 48l2 2"/><path id="Stroke-286" class="st1" d="M34 45l-4 5"/></g></g></g></svg>