<svg id="Layer_1" xmlns="http://www.w3.org/2000/svg" viewBox="0 0 46 60"><style>.st0{fill:#fff}.st1{fill:none;stroke:#36aeea;stroke-width:2;stroke-linejoin:round}.st2{fill:#d0e8f9}.st3{fill:none;stroke:#36aeea;stroke-width:2;stroke-linecap:round;stroke-linejoin:round}</style><title/><g id="Page-1"><g id="_x34_8---Protected-System-_x28_Webby_x29_" transform="translate(1 1)"><path id="Fill-45" class="st0" d="M22 0S15.3 8 0 8v19.1c0 10 4.3 19.6 12.2 25.7 2.8 2.2 6 4.1 9.8 5.2 3.8-1.1 7.1-3 9.8-5.2C39.7 46.7 44 37.1 44 27.1V8C28.7 8 22 0 22 0z"/><path id="Stroke-46" class="st1" d="M22 0S15.3 8 0 8v19.1c0 10 4.3 19.6 12.2 25.7 2.8 2.2 6 4.1 9.8 5.2 3.8-1.1 7.1-3 9.8-5.2C39.7 46.7 44 37.1 44 27.1V8C28.7 8 22 0 22 0z"/><path id="Fill-47" class="st2" d="M22 51.7c-2.1-.8-4.2-2-6.1-3.6C9.7 43.2 6 35.4 6 27.1V13.6c7.4-.9 12.6-3.5 16-5.8 3.4 2.3 8.6 4.9 16 5.8v13.5c0 8.3-3.7 16.2-9.9 21-1.9 1.5-4 2.7-6.1 3.6z"/><path id="Stroke-48" class="st1" d="M22 51.7c-2.1-.8-4.2-2-6.1-3.6C9.7 43.2 6 35.4 6 27.1V13.6c7.4-.9 12.6-3.5 16-5.8 3.4 2.3 8.6 4.9 16 5.8v13.5c0 8.3-3.7 16.2-9.9 21-1.9 1.5-4 2.7-6.1 3.6z"/><path id="Stroke-51" class="st3" d="M34 21L20 37l-8-8"/></g></g></svg>