<svg id="Layer_1" xmlns="http://www.w3.org/2000/svg" viewBox="0 0 57 57"><style>.st0{fill:#d0e8f9}.st1,.st2{fill:none;stroke:#36aeea;stroke-width:2}.st2{stroke-linecap:round}.st3{fill:#fff}</style><title/><g id="Page-1"><g id="_x35_---Forensic-Search-_x28_Webby_x29_" transform="translate(1 1)"><path id="Fill-606" class="st0" d="M40 20c0 11-9 20-20 20S0 31 0 20 9 0 20 0c11.1 0 20 9 20 20z"/><path id="Stroke-607" class="st1" d="M40 20c0 11-9 20-20 20S0 31 0 20 9 0 20 0c11.1 0 20 9 20 20z"/><path id="Fill-608" class="st0" d="M53.8 47.4L43.3 36.9l-1.4 1.4-6.2-6c-.8 1.1-1.8 2-2.8 2.9l6.1 5.9-1.4 1.4L48.2 53c1.6 1.6 4.1 1.6 5.7 0 1.5-1.5 1.5-4.1-.1-5.6z"/><path id="Stroke-609" class="st2" d="M53.8 47.4L43.3 36.9l-1.4 1.4-6.2-6c-.8 1.1-1.8 2-2.8 2.9l6.1 5.9-1.4 1.4L48.2 53c1.6 1.6 4.1 1.6 5.7 0 1.5-1.5 1.5-4.1-.1-5.6z"/><path id="Fill-610" class="st3" d="M36 20c0 8.8-7.2 16-16 16S4 28.8 4 20 11.2 4 20 4c8.9 0 16 7.2 16 16z"/><path id="Stroke-611" class="st1" d="M36 20c0 8.8-7.2 16-16 16S4 28.8 4 20 11.2 4 20 4c8.9 0 16 7.2 16 16z"/></g></g></svg>