<svg id="Layer_1" xmlns="http://www.w3.org/2000/svg" viewBox="-177 326.3 95.4 25.6"><style>.st0,.st1{fill:#fff}</style><path class="st0" d="M-140.9 328.8l-.7 4.1c-.3 2-1.8 2.6-3.3 2.6-1.4 0-2.9-.7-2.6-2.7l.6-4.1h1.8l-.6 4.1c-.1.9.3 1.2 1 1.2.8 0 1.4-.4 1.5-1.3l.6-4h1.7v.1zm3.7-.1c.9 0 1.7.2 2.2.6l-.2 1.5c-.6-.4-1.3-.6-1.9-.6-.7 0-1 .2-1 .5-.1.9 3.4.7 2.9 3-.3 1.5-1.5 1.9-2.9 1.9-1 0-1.9-.2-2.5-.6l.3-1.6c.7.5 1.5.7 2.2.7s1.1-.2 1.1-.5c.2-1.1-3.3-.8-2.9-3.1.2-1.2 1.5-1.8 2.7-1.8z"/><path class="st1" d="M-171.5 337.8s1 6.5 10.4 11.3c.9-.8 1.9-1.7 2.8-2.7-3.7-.9-9.7-3.2-13.2-8.6z"/><path class="st1" d="M-157.3 345.1c.5-.6.9-1.3 1.3-2.1-3.5-.2-7.7-.8-10.3-2.2 0 .2 2.1 2.5 9 4.3zm61.6 1.8c-.3 0-.5-.2-.4-.5 0-.3.3-.4.5-.4.3 0 .5.2.4.5-.1.3-.3.4-.5.4zm2.9-3.2c.4 0 .6.1.9.2l-.1.7c-.2-.1-.4-.2-.7-.2-.5 0-1.1.2-1.2.9-.1.6.3.9.8.9.3 0 .6-.1.9-.3l-.1.8c-.3.1-.6.2-.9.2-.8 0-1.6-.5-1.5-1.7.1-1 1.1-1.5 1.9-1.5zm2.5 3.2c-1.1 0-1.6-.8-1.4-1.7.1-.8.8-1.6 1.9-1.6 1 0 1.6.8 1.4 1.7-.2.9-.8 1.6-1.9 1.6zm.1-.7c.6 0 .9-.4 1-.9s-.1-.8-.7-.8-.9.4-1 .9c-.1.4.1.8.7.8zm6-2.4l-.5 3.1h-.8l.3-1.6-.8 1h-.6l-.5-1-.3 1.7h-.8l.5-3.1h.7l.7 1.5 1.2-1.5h.9v-.1zm-46.5-15c1.5 0 2.8.6 2.5 2.4-.3 1.7-1.4 2.2-3.1 2.2h-1l-.3 2.1h-1.8l1.1-6.6h2.6v-.1zm0 1.6h-1l-.2 1.5h1c.6 0 1-.2 1.1-.8 0-.6-.5-.7-.9-.7zm7.3 5.1l-.2-1h-2.7l-.5 1h-1.8l3.7-6.6h1.9l1.6 6.6h-2zm-2.2-2.5h1.7l-.4-1.9c0-.2-.1-.4-.1-.7-.1.3-.2.5-.3.7l-.9 1.9zm7.9-4.3c.9 0 1.7.2 2.2.6l-.2 1.5c-.6-.4-1.3-.6-1.9-.6-.7 0-1 .2-1 .5-.1.9 3.4.7 2.9 3-.3 1.5-1.5 1.9-2.9 1.9-1 0-1.9-.2-2.5-.6l.3-1.6c.7.5 1.5.7 2.2.7s1.1-.2 1.1-.5c.2-1.1-3.3-.8-2.9-3.1.2-1.2 1.5-1.8 2.7-1.8zm6.2 0c.9 0 1.7.2 2.2.6l-.2 1.5c-.6-.4-1.3-.6-1.9-.6-.7 0-1 .2-1 .5-.1.9 3.4.7 2.9 3-.3 1.5-1.5 1.9-2.9 1.9-1 0-1.9-.2-2.5-.6l.3-1.6c.7.5 1.5.7 2.2.7s1.1-.2 1.1-.5c.2-1.1-3.3-.8-2.9-3.1.2-1.2 1.4-1.8 2.7-1.8zm6.5.1c1.5 0 2.8.6 2.5 2.4-.3 1.7-1.4 2.2-3.1 2.2h-1l-.3 2.1h-1.8l1.1-6.6h2.6v-.1zm-.1 1.6h-1l-.2 1.5h1c.6 0 1-.2 1.1-.8 0-.6-.4-.7-.9-.7zm6.2 5.2c-2.3 0-3.4-1.7-3.1-3.6.3-1.8 1.7-3.4 4-3.4 2.2 0 3.4 1.7 3.1 3.6-.3 1.8-1.7 3.4-4 3.4zm.1-1.6c1.2 0 2-.8 2.1-1.9.2-1-.3-1.8-1.4-1.8-1.2 0-2 .8-2.1 1.9-.1 1 .3 1.8 1.4 1.8zm4.6 1.5l1.1-6.6h2.8c1.3 0 2.7.5 2.4 2.3-.2 1-.8 1.6-1.6 1.9l1.4 2.4H-90l-1.2-2.2h-.9l-.3 2.2h-1.8zm2.3-3.6h1.1c.5 0 .9-.3 1-.8s-.2-.8-.7-.8h-1.1l-.3 1.6zm10.3-3.1l-.2 1.6h-1.9l-.8 5.1h-1.8l.8-5.1h-1.9l.2-1.6h5.6zm-66.2 18l1.1-6.6h2.8c1.3 0 2.7.5 2.4 2.3-.2 1-.8 1.6-1.6 1.9l1.4 2.4h-1.9l-1.2-2.2h-.9l-.3 2.2h-1.8zm2.3-3.6h1.1c.5 0 .9-.3 1-.8.1-.5-.2-.8-.7-.8h-1.1l-.3 1.6zm10.4-3l-.2 1.5h-3l-.2 1h2.7l-.2 1.5h-2.7l-.2 1.1h3.1l-.2 1.5h-4.9l1.1-6.6h4.7zm.4 6.6l1.1-6.6h1.5l2.2 3.8c0-.3.1-.7.1-1.1l.4-2.7h1.8l-1.1 6.6h-1.5l-2.2-3.8c0 .3 0 .7-.1 1l-.5 2.8h-1.7zm13.4-6.6l-.2 1.5h-3l-.2 1h2.7l-.2 1.5h-2.7l-.2 1.1h3.1l-.2 1.5h-4.8l1.1-6.6h4.6zm10.8 0l-3.1 6.6h-1.9l-.5-4.1-1.8 4.1h-1.9l-1-6.6h1.8l.4 4.7 2-4.7h1.6l.5 4.7 1.9-4.7h2zm4.1 6.6l-.2-1h-2.7l-.5 1h-1.8l3.7-6.6h1.9l1.6 6.6h-2zm-2.2-2.4h1.7l-.4-1.9c0-.2-.1-.4-.1-.7-.1.3-.2.5-.3.7l-.9 1.9zm7.4-4.2l-.8 5.1h3l-.2 1.6h-4.8l1.1-6.7h1.7z"/><path class="st1" d="M-154 326.3l-11.4 2.4-11.4-2.4s-1.1 8.8 1.4 15.4c2.6 6.7 10 10.2 10 10.2s1.5-.7 3.3-2.1c-13-4.6-11.6-19.6-11.6-19.6 3.3 8.1 12.1 10.9 18.1 11.9.1-.1.1-.2.1-.4 2.6-6.7 1.5-15.4 1.5-15.4zm-8.5 6.7l-.8.4.1-.9-.6-.6.9-.1.4-.8.4.8.9.1-.6.6.1.9-.8-.4zm2.9 3.8l-.8-.4-.8.4.1-.9-.6-.6.9-.1.4-.8.4.8.9.1-.6.6.1.9zm2-3.4l-.8-.4-.8.4.1-.9-.6-.6.9-.1.4-.8.4.8.9.1-.6.6.1.9z"/></svg>