<svg id="Layer_1" xmlns="http://www.w3.org/2000/svg" viewBox="0 0 60 59"><style>.st0{fill:#fff}.st1{fill:none;stroke:#36aeea;stroke-width:2;stroke-linecap:round}.st2{fill:#c6e3f8}.st3{fill:none;stroke:#36aeea;stroke-width:2;stroke-linecap:round;stroke-linejoin:round}</style><title/><g id="Page-1"><g id="Icons" transform="translate(-120 -1078)"><g id="Chat-Conversation" transform="translate(121 1079)"><path id="Fill-17" class="st0" d="M33.2 10H13.8C6.2 10 0 16.2 0 23.8v11.3C0 42.7 6.4 49 14 49v7.4c0 .5.4.8.7.4l1.5-1.5C20.4 51.2 26 49 31.8 49h1.4C40.8 49 47 42.7 47 35.1V23.8C47 16.2 40.8 10 33.2 10z"/><path id="Stroke-18" class="st1" d="M33.2 10H13.8C6.2 10 0 16.2 0 23.8v11.3C0 42.7 6.4 49 14 49v7.4c0 .5.4.8.7.4l1.5-1.5C20.4 51.2 26 49 31.8 49h1.4C40.8 49 47 42.7 47 35.1V23.8C47 16.2 40.8 10 33.2 10z"/><path id="Stroke-19" class="st1" d="M14 44.8V49"/><path id="Fill-20" class="st2" d="M44.2 0H24.8c-6.4 0-11.7 4.3-13.3 10.2.7-.1 1.5-.2 2.3-.2h19.4C40.8 10 47 16.2 47 23.8v11.3c0 1.3-.2 2.5-.5 3.6C53 37.6 58 31.9 58 25.1V13.8C58 6.2 51.8 0 44.2 0z"/><path id="Stroke-21" class="st1" d="M44.2 0H24.8c-6.4 0-11.7 4.3-13.3 10.2.7-.1 1.5-.2 2.3-.2h19.4C40.8 10 47 16.2 47 23.8v11.3c0 1.3-.2 2.5-.5 3.6C53 37.6 58 31.9 58 25.1V13.8C58 6.2 51.8 0 44.2 0z"/><path id="Fill-30" class="st2" d="M15 30c0 1.7-1.3 3-3 3s-3-1.3-3-3 1.3-3 3-3 3 1.3 3 3z"/><path id="Stroke-31" class="st3" d="M15 30c0 1.7-1.3 3-3 3s-3-1.3-3-3 1.3-3 3-3 3 1.3 3 3z"/><path id="Fill-32" class="st2" d="M27 30c0 1.7-1.3 3-3 3s-3-1.3-3-3 1.3-3 3-3 3 1.3 3 3z"/><path id="Stroke-33" class="st3" d="M27 30c0 1.7-1.3 3-3 3s-3-1.3-3-3 1.3-3 3-3 3 1.3 3 3z"/><path id="Fill-34" class="st2" d="M39 30c0 1.7-1.3 3-3 3s-3-1.3-3-3 1.3-3 3-3 3 1.3 3 3z"/><path id="Stroke-35" class="st3" d="M39 30c0 1.7-1.3 3-3 3s-3-1.3-3-3 1.3-3 3-3 3 1.3 3 3z"/></g></g></g></svg>