<svg id="Layer_1" xmlns="http://www.w3.org/2000/svg" viewBox="0 0 60 60"><style>.st0{fill:#fff;stroke:#36aeea;stroke-miterlimit:10}.st1,.st2{fill:none;stroke-width:2}.st1{stroke:#36aeea}.st2{stroke-linecap:round}.st2,.st3,.st4{stroke:#36aeea}.st3{stroke-miterlimit:10;fill:#d0e8f9}.st4{fill:none;stroke-width:2;stroke-linecap:round;stroke-dasharray:0,3}</style><title/><g id="Page-1"><g id="Icons" transform="translate(-120 -717)"><g id="Rewind-Time" transform="translate(121 718)"><path id="Fill-1" class="st0" d="M29 50C17.4 50 8 40.6 8 29S17.4 8 29 8s21 9.4 21 21-9.4 21-21 21z"/><path id="Stroke-2" class="st1" d="M29 50C17.4 50 8 40.6 8 29S17.4 8 29 8s21 9.4 21 21-9.4 21-21 21z"/><path id="Stroke-3" class="st2" d="M29 11v2m0 32v2m18-18h-2m-32 0h-2"/><path id="Fill-4" class="st3" d="M32 28c0 1.7-1.3 3-3 3s-3-1.3-3-3 1.3-3 3-3 3 1.3 3 3z"/><path id="Stroke-5" class="st2" d="M32 28c0 1.7-1.3 3-3 3s-3-1.3-3-3 1.3-3 3-3 3 1.3 3 3z"/><path id="Stroke-6" class="st2" d="M29 25v-6m-2.1 11.1L18 39M9 8c5.2-5 12.3-8 20-8 16 0 29 13 29 29M17 8H9V0"/><path id="Stroke-7" class="st4" d="M58 29c0 16-13 29-29 29S0 45 0 29"/></g></g></g></svg>