<?xml version="1.0" encoding="utf-8"?>
<!-- Generator: Adobe Illustrator 21.0.0, SVG Export Plug-In . SVG Version: 6.00 Build 0)  -->
<!DOCTYPE svg PUBLIC "-//W3C//DTD SVG 1.1//EN" "http://www.w3.org/Graphics/SVG/1.1/DTD/svg11.dtd">
<svg version="1.1" id="Layer_1" xmlns="http://www.w3.org/2000/svg" xmlns:xlink="http://www.w3.org/1999/xlink" x="0px" y="0px"
	 viewBox="0 0 60 60" style="enable-background:new 0 0 60 60;" xml:space="preserve">
<style type="text/css">
	.st0{fill:#D0E8F9;}
	.st1{fill:none;stroke:#36AEEA;stroke-width:2;stroke-linecap:round;stroke-linejoin:round;}
	.st2{fill:#FFFFFF;}
</style>
<title></title>
<desc></desc>
<g id="Page-1">
	<g id="Delivery-2---Webby" transform="translate(-720.000000, -404.000000)">
		
			<g id="_x36_--Call-Center-Operator--_x28_shipping_x2C_-transport_x2C_-delivery_x29_" transform="translate(720.000000, 405.000000)">
			<path id="Fill-261" class="st0" d="M12.8,29h-1.5C10,29,9,28,9,26.8v-7.5C9,18,10,17,11.2,17h1.5c1.2,0,2.2,1,2.2,2.2v7.5
				C15,28,14,29,12.8,29"/>
			<path id="Stroke-262" class="st1" d="M12.8,29h-1.5C10,29,9,28,9,26.8v-7.5C9,18,10,17,11.2,17h1.5c1.2,0,2.2,1,2.2,2.2v7.5
				C15,28,14,29,12.8,29L12.8,29z"/>
			<polygon id="Fill-263" class="st0" points="34,53 26,53 30,44 			"/>
			<polygon id="Stroke-264" class="st1" points="34,53 26,53 30,44 			"/>
			<polygon id="Fill-265" class="st0" points="25,58 26,53 34,53 35,58 			"/>
			<polygon id="Stroke-266" class="st1" points="25,58 26,53 34,53 35,58 			"/>
			<path id="Fill-267" class="st0" d="M19.3,38.1L19,38l-1,4l8,11l4-9C25.8,44,22,41.6,19.3,38.1"/>
			<path id="Stroke-268" class="st1" d="M19.3,38.1L19,38l-1,4l8,11l4-9C25.8,44,22,41.6,19.3,38.1L19.3,38.1z"/>
			<path id="Fill-269" class="st0" d="M40.7,38.1C38,41.6,34.2,44,30,44l4,9l8-11l-1-4L40.7,38.1z"/>
			<path id="Stroke-270" class="st1" d="M40.7,38.1C38,41.6,34.2,44,30,44l4,9l8-11l-1-4L40.7,38.1L40.7,38.1z"/>
			<path id="Fill-271" class="st2" d="M56.6,49.7C51.1,46.8,45.8,44.6,41,44h-0.5L34,53l1,5h-0.4l0,0H59v-4.3
				C59,52,58.1,50.5,56.6,49.7"/>
			<path id="Stroke-272" class="st1" d="M56.6,49.7C51.1,46.8,45.8,44.6,41,44h-0.5L34,53l1,5h-0.4l0,0H59v-4.3
				C59,52,58.1,50.5,56.6,49.7L56.6,49.7z"/>
			<path id="Fill-273" class="st2" d="M19.5,44H19c-4.8,0.6-10.1,2.8-15.6,5.7C1.9,50.5,1,52,1,53.7V58h24l1-5L19.5,44z"/>
			<path id="Stroke-274" class="st1" d="M19.5,44H19c-4.8,0.6-10.1,2.8-15.6,5.7C1.9,50.5,1,52,1,53.7V58h24l1-5L19.5,44L19.5,44z"
				/>
			<polygon id="Fill-275" class="st2" points="25,58 25.4,58 25.4,58 			"/>
			<polygon id="Stroke-276" class="st1" points="25,58 25.4,58 25.4,58 			"/>
			<path id="Fill-277" class="st0" d="M47.2,29h1.5c1.2,0,2.2-1,2.2-2.2v-7.5c0-1.2-1-2.2-2.2-2.2h-1.5C46,17,45,18,45,19.2v7.5
				C45,28,46,29,47.2,29"/>
			<path id="Stroke-278" class="st1" d="M47.2,29h1.5c1.2,0,2.2-1,2.2-2.2v-7.5c0-1.2-1-2.2-2.2-2.2h-1.5C46,17,45,18,45,19.2v7.5
				C45,28,46,29,47.2,29L47.2,29z"/>
			<path id="Stroke-279" class="st1" d="M48,17C48,3.9,38.7,0,30,0S12,3.9,12,17"/>
			<path id="Fill-280" class="st2" d="M15,19c0-8.3,6.7-15,15-15s15,6.7,15,15v7c0,8.8-6.7,18-15,18s-15-9.2-15-18V19z"/>
			<path id="Stroke-281" class="st1" d="M15,19c0-8.3,6.7-15,15-15s15,6.7,15,15v7c0,8.8-6.7,18-15,18s-15-9.2-15-18V19L15,19z"/>
			<path id="Stroke-286" class="st1" d="M48,29c0,4.4-2.7,8-17,8"/>
		</g>
	</g>
</g>
</svg>
