<?xml version="1.0" encoding="utf-8"?>
<!-- Generator: Adobe Illustrator 21.0.0, SVG Export Plug-In . SVG Version: 6.00 Build 0)  -->
<!DOCTYPE svg PUBLIC "-//W3C//DTD SVG 1.1//EN" "http://www.w3.org/Graphics/SVG/1.1/DTD/svg11.dtd">
<svg version="1.1" id="Layer_1" xmlns="http://www.w3.org/2000/svg" xmlns:xlink="http://www.w3.org/1999/xlink" x="0px" y="0px"
	 viewBox="0 0 61 56" style="enable-background:new 0 0 61 56;" xml:space="preserve">
<style type="text/css">
	.st0{fill:#FFFFFF;}
	.st1{fill:none;stroke:#36AEEA;stroke-width:2;stroke-linecap:round;stroke-linejoin:round;}
	.st2{fill:#D0E8F9;}
</style>
<title></title>
<desc></desc>
<g id="Page-1">
	<g id="Hotel-Services---Webby" transform="translate(-119.000000, -1124.000000)">
		<g id="_x36_1--Calendar--_x28_hotel_x2C_-service_x2C_-travel_x29_" transform="translate(120.000000, 1125.000000)">
			<path id="Fill-997" class="st0" d="M0,52V14h58v38c0,1.1-0.9,2-2,2H2C0.9,54,0,53.1,0,52"/>
			<path id="Stroke-998" class="st1" d="M0,52V14h58v38c0,1.1-0.9,2-2,2H2C0.9,54,0,53.1,0,52L0,52z"/>
			<path id="Fill-999" class="st0" d="M0,14V6c0-1.1,0.9-2,2-2h54c1.1,0,2,0.9,2,2v8H0z"/>
			<path id="Stroke-1000" class="st1" d="M0,14V6c0-1.1,0.9-2,2-2h54c1.1,0,2,0.9,2,2v8H0L0,14z"/>
			<path id="Stroke-1001" class="st1" d="M51,8c2.2,0,4-1.8,4-4s-1.8-4-4-4s-4,1.8-4,4"/>
			<path id="Stroke-1002" class="st1" d="M40,8c2.2,0,4-1.8,4-4s-1.8-4-4-4s-4,1.8-4,4"/>
			<path id="Stroke-1003" class="st1" d="M29,8c2.2,0,4-1.8,4-4s-1.8-4-4-4s-4,1.8-4,4"/>
			<path id="Stroke-1004" class="st1" d="M18,8c2.2,0,4-1.8,4-4s-1.8-4-4-4s-4,1.8-4,4"/>
			<path id="Stroke-1005" class="st1" d="M7,8c2.2,0,4-1.8,4-4S9.2,0,7,0S3,1.8,3,4"/>
			<polygon id="Fill-1006" class="st2" points="8,26 14,26 14,20 8,20 			"/>
			<polygon id="Stroke-1007" class="st1" points="8,26 14,26 14,20 8,20 			"/>
			<polygon id="Fill-1008" class="st2" points="20,26 26,26 26,20 20,20 			"/>
			<polygon id="Stroke-1009" class="st1" points="20,26 26,26 26,20 20,20 			"/>
			<polygon id="Fill-1010" class="st2" points="32,26 38,26 38,20 32,20 			"/>
			<polygon id="Stroke-1011" class="st1" points="32,26 38,26 38,20 32,20 			"/>
			<polygon id="Fill-1012" class="st2" points="44,26 50,26 50,20 44,20 			"/>
			<polygon id="Stroke-1013" class="st1" points="44,26 50,26 50,20 44,20 			"/>
			<polygon id="Fill-1014" class="st2" points="8,37 14,37 14,31 8,31 			"/>
			<polygon id="Stroke-1015" class="st1" points="8,37 14,37 14,31 8,31 			"/>
			<polygon id="Fill-1016" class="st2" points="20,37 26,37 26,31 20,31 			"/>
			<polygon id="Stroke-1017" class="st1" points="20,37 26,37 26,31 20,31 			"/>
			<polygon id="Fill-1018" class="st2" points="32,37 38,37 38,31 32,31 			"/>
			<polygon id="Stroke-1019" class="st1" points="32,37 38,37 38,31 32,31 			"/>
			<polygon id="Fill-1020" class="st2" points="44,37 50,37 50,31 44,31 			"/>
			<polygon id="Stroke-1021" class="st1" points="44,37 50,37 50,31 44,31 			"/>
			<polygon id="Fill-1022" class="st2" points="8,48 14,48 14,42 8,42 			"/>
			<polygon id="Stroke-1023" class="st1" points="8,48 14,48 14,42 8,42 			"/>
			<polygon id="Fill-1024" class="st2" points="20,48 26,48 26,42 20,42 			"/>
			<polygon id="Stroke-1025" class="st1" points="20,48 26,48 26,42 20,42 			"/>
			<polygon id="Fill-1026" class="st2" points="32,48 38,48 38,42 32,42 			"/>
			<polygon id="Stroke-1027" class="st1" points="32,48 38,48 38,42 32,42 			"/>
			<polygon id="Fill-1028" class="st2" points="44,48 50,48 50,42 44,42 			"/>
			<polygon id="Stroke-1029" class="st1" points="44,48 50,48 50,42 44,42 			"/>
		</g>
	</g>
</g>
</svg>
