<?xml version="1.0" encoding="utf-8"?>
<!-- Generator: Adobe Illustrator 21.0.0, SVG Export Plug-In . SVG Version: 6.00 Build 0)  -->
<!DOCTYPE svg PUBLIC "-//W3C//DTD SVG 1.1//EN" "http://www.w3.org/Graphics/SVG/1.1/DTD/svg11.dtd">
<svg version="1.1" id="Layer_1" xmlns="http://www.w3.org/2000/svg" xmlns:xlink="http://www.w3.org/1999/xlink" x="0px" y="0px"
	 viewBox="0 0 60 57" style="enable-background:new 0 0 60 57;" xml:space="preserve">
<style type="text/css">
	.st0{fill:#FFFFFF;}
	.st1{fill:none;stroke:#36AEEA;stroke-width:2;stroke-linecap:round;stroke-linejoin:round;}
	.st2{fill:#D0E8F9;}
</style>
<title></title>
<desc></desc>
<g id="Page-1">
	<g id="Icons" transform="translate(-1081.000000, -712.000000)">
		<g id="_x33_9--Computer--_x28_marketing_x2C_-business_x2C_-finance_x29_" transform="translate(1082.000000, 713.000000)">
			<path id="Fill-797" class="st0" d="M39.8,52H18.2c-0.2,0-0.3-0.3-0.1-0.4l1.8-1.3c1.9-1.4,2.9-3.9,2.3-6.3h13.6v0
				c-0.6,2.4,0.4,4.9,2.3,6.3l1.8,1.3C40.1,51.7,40,52,39.8,52"/>
			<path id="Stroke-798" class="st1" d="M39.8,52H18.2c-0.2,0-0.3-0.3-0.1-0.4l1.8-1.3c1.9-1.4,2.9-3.9,2.3-6.3h13.6v0
				c-0.6,2.4,0.4,4.9,2.3,6.3l1.8,1.3C40.1,51.7,40,52,39.8,52z"/>
			<path id="Fill-799" class="st0" d="M58,35H0V3.5C0,1.6,1.6,0,3.5,0h51C56.4,0,58,1.6,58,3.5V35z"/>
			<path id="Stroke-800" class="st1" d="M58,35H0V3.5C0,1.6,1.6,0,3.5,0h51C56.4,0,58,1.6,58,3.5V35z"/>
			<path id="Fill-801" class="st2" d="M40.5,55h-23c-0.8,0-1.5-0.7-1.5-1.5s0.7-1.5,1.5-1.5h23c0.8,0,1.5,0.7,1.5,1.5
				S41.3,55,40.5,55"/>
			<path id="Stroke-802" class="st1" d="M40.5,55h-23c-0.8,0-1.5-0.7-1.5-1.5s0.7-1.5,1.5-1.5h23c0.8,0,1.5,0.7,1.5,1.5
				S41.3,55,40.5,55z"/>
			<path id="Fill-803" class="st2" d="M0,40.5C0,42.4,1.6,44,3.5,44h51c1.9,0,3.5-1.6,3.5-3.5V35H0V40.5z"/>
			<path id="Stroke-804" class="st1" d="M0,40.5C0,42.4,1.6,44,3.5,44h51c1.9,0,3.5-1.6,3.5-3.5V35H0V40.5z"/>
			<path id="Fill-809" class="st2" d="M30,25c0,1.1-0.9,2-2,2s-2-0.9-2-2s0.9-2,2-2S30,23.9,30,25"/>
			<path id="Stroke-810" class="st1" d="M30,25c0,1.1-0.9,2-2,2s-2-0.9-2-2s0.9-2,2-2S30,23.9,30,25z"/>
			<path id="Stroke-814" class="st1" d="M34,19l-4,4"/>
			<path id="Fill-815" class="st2" d="M44,22h-4c0-6.1-4.9-11-11-11s-11,4.9-11,11h-4c0-8.3,6.7-15,15-15S44,13.7,44,22"/>
			<path id="Stroke-816" class="st1" d="M44,22h-4c0-6.1-4.9-11-11-11s-11,4.9-11,11h-4c0-8.3,6.7-15,15-15S44,13.7,44,22z"/>
		</g>
	</g>
</g>
</svg>
