<?xml version="1.0" encoding="utf-8"?>
<!-- Generator: Adobe Illustrator 21.0.0, SVG Export Plug-In . SVG Version: 6.00 Build 0)  -->
<!DOCTYPE svg PUBLIC "-//W3C//DTD SVG 1.1//EN" "http://www.w3.org/Graphics/SVG/1.1/DTD/svg11.dtd">
<svg version="1.1" id="Layer_1" xmlns="http://www.w3.org/2000/svg" xmlns:xlink="http://www.w3.org/1999/xlink" x="0px" y="0px"
	 viewBox="0 0 42 61" style="enable-background:new 0 0 42 61;" xml:space="preserve">
<style type="text/css">
	.st0{fill:#D0E8F9;}
	.st1{fill:none;stroke:#36AEEA;stroke-width:2;stroke-linecap:round;stroke-linejoin:round;}
	.st2{fill:#FFFFFF;}
</style>
<title></title>
<desc></desc>
<g id="Page-1">
	<g id="Icons" transform="translate(-354.000000, -706.000000)">
		<g id="_x33_3--Check-List--_x28_document_x2C_-paper_x2C_-write_x2C_-note_x29_" transform="translate(355.000000, 707.000000)">
			<path id="Fill-247" class="st0" d="M25,4V2c0-1.1-0.9-2-2-2h-6c-1.1,0-2,0.9-2,2v2h-4c-0.6,0-1,0.4-1,1v7c0,0.6,0.4,1,1,1l18,0
				c0.6,0,1-0.4,1-1V5c0-0.6-0.4-1-1-1H25z"/>
			<path id="Stroke-248" class="st1" d="M25,4V2c0-1.1-0.9-2-2-2h-6c-1.1,0-2,0.9-2,2v2h-4c-0.6,0-1,0.4-1,1v7c0,0.6,0.4,1,1,1l18,0
				c0.6,0,1-0.4,1-1V5c0-0.6-0.4-1-1-1H25L25,4z"/>
			<path id="Fill-249" class="st2" d="M30,7v5c0,0.6-0.4,1-1,1l-18,0c-0.6,0-1-0.5-1-1V7H4c-2.2,0-4,1.8-4,4v43c0,2.2,1.8,4,4,4h32
				c2.2,0,4-1.8,4-4V11c0-2.2-1.8-4-4-4H30z"/>
			<path id="Stroke-250" class="st1" d="M30,7v5c0,0.6-0.4,1-1,1l-18,0c-0.6,0-1-0.5-1-1V7H4c-2.2,0-4,1.8-4,4v43c0,2.2,1.8,4,4,4
				h32c2.2,0,4-1.8,4-4V11c0-2.2-1.8-4-4-4H30L30,7z"/>
			<path id="Stroke-275" class="st1" d="M23,48H7"/>
			<path id="Stroke-276" class="st1" d="M23,39H7"/>
			<path id="Stroke-277" class="st1" d="M23,30H7"/>
			<path id="Stroke-278" class="st1" d="M23,21H7"/>
			<path id="Stroke-279" class="st1" d="M28,21l2,2"/>
			<path id="Stroke-280" class="st1" d="M34,18l-4,5"/>
			<path id="Stroke-281" class="st1" d="M28,30l2,2"/>
			<path id="Stroke-282" class="st1" d="M34,27l-4,5"/>
			<path id="Stroke-283" class="st1" d="M28,39l2,2"/>
			<path id="Stroke-284" class="st1" d="M34,36l-4,5"/>
			<path id="Stroke-285" class="st1" d="M28,48l2,2"/>
			<path id="Stroke-286" class="st1" d="M34,45l-4,5"/>
		</g>
	</g>
</g>
</svg>
