<?xml version="1.0" encoding="utf-8"?>
<!-- Generator: Adobe Illustrator 21.0.0, SVG Export Plug-In . SVG Version: 6.00 Build 0)  -->
<!DOCTYPE svg PUBLIC "-//W3C//DTD SVG 1.1//EN" "http://www.w3.org/Graphics/SVG/1.1/DTD/svg11.dtd">
<svg version="1.1" id="Layer_1" xmlns:sketch="http://www.bohemiancoding.com/sketch/ns"
	 xmlns="http://www.w3.org/2000/svg" xmlns:xlink="http://www.w3.org/1999/xlink" x="0px" y="0px" viewBox="0 0 46 60"
	 style="enable-background:new 0 0 46 60;" xml:space="preserve">
<style type="text/css">
	.st0{fill:#FFFFFF;}
	.st1{fill:none;stroke:#36AEEA;stroke-width:2;stroke-linejoin:round;}
	.st2{fill:#D0E8F9;}
	.st3{fill:none;stroke:#36AEEA;stroke-width:2;stroke-linecap:round;stroke-linejoin:round;}
</style>
<title></title>
<desc></desc>
<g id="Page-1">
	<g id="_x34_8---Protected-System-_x28_Webby_x29_" transform="translate(1.000000, 1.000000)">
		<path id="Fill-45" class="st0" d="M22,0c0,0-6.7,8-22,8v19.1c0,10,4.3,19.6,12.2,25.7c2.8,2.2,6,4.1,9.8,5.2
			c3.8-1.1,7.1-3,9.8-5.2C39.7,46.7,44,37.1,44,27.1V8C28.7,8,22,0,22,0L22,0z"/>
		<path id="Stroke-46" class="st1" d="M22,0c0,0-6.7,8-22,8v19.1c0,10,4.3,19.6,12.2,25.7c2.8,2.2,6,4.1,9.8,5.2
			c3.8-1.1,7.1-3,9.8-5.2C39.7,46.7,44,37.1,44,27.1V8C28.7,8,22,0,22,0L22,0z"/>
		<path id="Fill-47" class="st2" d="M22,51.7c-2.1-0.8-4.2-2-6.1-3.6C9.7,43.2,6,35.4,6,27.1V13.6c7.4-0.9,12.6-3.5,16-5.8
			c3.4,2.3,8.6,4.9,16,5.8v13.5c0,8.3-3.7,16.2-9.9,21C26.2,49.6,24.1,50.8,22,51.7L22,51.7z"/>
		<path id="Stroke-48" class="st1" d="M22,51.7c-2.1-0.8-4.2-2-6.1-3.6C9.7,43.2,6,35.4,6,27.1V13.6c7.4-0.9,12.6-3.5,16-5.8
			c3.4,2.3,8.6,4.9,16,5.8v13.5c0,8.3-3.7,16.2-9.9,21C26.2,49.6,24.1,50.8,22,51.7L22,51.7z"/>
		<path id="Stroke-51" class="st3" d="M34,21L20,37l-8-8"/>
	</g>
</g>
</svg>
