<?xml version="1.0" encoding="utf-8"?>
<!-- Generator: Adobe Illustrator 21.0.0, SVG Export Plug-In . SVG Version: 6.00 Build 0)  -->
<!DOCTYPE svg PUBLIC "-//W3C//DTD SVG 1.1//EN" "http://www.w3.org/Graphics/SVG/1.1/DTD/svg11.dtd">
<svg version="1.1" id="Layer_1" xmlns:sketch="http://www.bohemiancoding.com/sketch/ns"
	 xmlns="http://www.w3.org/2000/svg" xmlns:xlink="http://www.w3.org/1999/xlink" x="0px" y="0px" viewBox="0 0 57 57"
	 style="enable-background:new 0 0 57 57;" xml:space="preserve">
<style type="text/css">
	.st0{fill:#D0E8F9;}
	.st1{fill:none;stroke:#36AEEA;stroke-width:2;}
	.st2{fill:none;stroke:#36AEEA;stroke-width:2;stroke-linecap:round;}
	.st3{fill:#FFFFFF;}
</style>
<title></title>
<desc></desc>
<g id="Page-1">
	<g id="_x35_---Forensic-Search-_x28_Webby_x29_" transform="translate(1.000000, 1.000000)">
		<path id="Fill-606" class="st0" d="M40,20c0,11-9,20-20,20C9,40,0,31,0,20S9,0,20,0C31.1,0,40,9,40,20L40,20z"/>
		<path id="Stroke-607" class="st1" d="M40,20c0,11-9,20-20,20C9,40,0,31,0,20S9,0,20,0C31.1,0,40,9,40,20L40,20z"/>
		<path id="Fill-608" class="st0" d="M53.8,47.4L43.3,36.9l-1.4,1.4l-6.2-6c-0.8,1.1-1.8,2-2.8,2.9l6.1,5.9l-1.4,1.4L48.2,53
			c1.6,1.6,4.1,1.6,5.7,0C55.4,51.5,55.4,48.9,53.8,47.4L53.8,47.4z"/>
		<path id="Stroke-609" class="st2" d="M53.8,47.4L43.3,36.9l-1.4,1.4l-6.2-6c-0.8,1.1-1.8,2-2.8,2.9l6.1,5.9l-1.4,1.4L48.2,53
			c1.6,1.6,4.1,1.6,5.7,0C55.4,51.5,55.4,48.9,53.8,47.4L53.8,47.4z"/>
		<path id="Fill-610" class="st3" d="M36,20c0,8.8-7.2,16-16,16c-8.8,0-16-7.2-16-16S11.2,4,20,4C28.9,4,36,11.2,36,20L36,20z"/>
		<path id="Stroke-611" class="st1" d="M36,20c0,8.8-7.2,16-16,16c-8.8,0-16-7.2-16-16S11.2,4,20,4C28.9,4,36,11.2,36,20L36,20z"/>
	</g>
</g>
</svg>
