<?xml version="1.0" encoding="utf-8"?>
<!-- Generator: Adobe Illustrator 21.0.0, SVG Export Plug-In . SVG Version: 6.00 Build 0)  -->
<!DOCTYPE svg PUBLIC "-//W3C//DTD SVG 1.1//EN" "http://www.w3.org/Graphics/SVG/1.1/DTD/svg11.dtd">
<svg version="1.1" id="Layer_1" xmlns="http://www.w3.org/2000/svg" xmlns:xlink="http://www.w3.org/1999/xlink" x="0px" y="0px"
	 viewBox="0 0 60 59" style="enable-background:new 0 0 60 59;" xml:space="preserve">
<style type="text/css">
	.st0{fill:#FFFFFF;}
	.st1{fill:none;stroke:#36AEEA;stroke-width:2;stroke-linecap:round;}
	.st2{fill:#C6E3F8;}
	.st3{fill:none;stroke:#36AEEA;stroke-width:2;stroke-linecap:round;stroke-linejoin:round;}
</style>
<title></title>
<desc></desc>
<g id="Page-1">
	<g id="Icons" transform="translate(-120.000000, -1078.000000)">
		<g id="Chat-Conversation" transform="translate(121.000000, 1079.000000)">
			<path id="Fill-17" class="st0" d="M33.2,10H13.8C6.2,10,0,16.2,0,23.8v11.3C0,42.7,6.4,49,14,49v7.4c0,0.5,0.4,0.8,0.7,0.4
				l1.5-1.5C20.4,51.2,26,49,31.8,49h1.4C40.8,49,47,42.7,47,35.1V23.8C47,16.2,40.8,10,33.2,10L33.2,10z"/>
			<path id="Stroke-18" class="st1" d="M33.2,10H13.8C6.2,10,0,16.2,0,23.8v11.3C0,42.7,6.4,49,14,49v7.4c0,0.5,0.4,0.8,0.7,0.4
				l1.5-1.5C20.4,51.2,26,49,31.8,49h1.4C40.8,49,47,42.7,47,35.1V23.8C47,16.2,40.8,10,33.2,10L33.2,10z"/>
			<path id="Stroke-19" class="st1" d="M14,44.8V49"/>
			<path id="Fill-20" class="st2" d="M44.2,0H24.8c-6.4,0-11.7,4.3-13.3,10.2c0.7-0.1,1.5-0.2,2.3-0.2h19.4C40.8,10,47,16.2,47,23.8
				v11.3c0,1.3-0.2,2.5-0.5,3.6C53,37.6,58,31.9,58,25.1V13.8C58,6.2,51.8,0,44.2,0L44.2,0z"/>
			<path id="Stroke-21" class="st1" d="M44.2,0H24.8c-6.4,0-11.7,4.3-13.3,10.2c0.7-0.1,1.5-0.2,2.3-0.2h19.4
				C40.8,10,47,16.2,47,23.8v11.3c0,1.3-0.2,2.5-0.5,3.6C53,37.6,58,31.9,58,25.1V13.8C58,6.2,51.8,0,44.2,0L44.2,0z"/>
			<path id="Fill-30" class="st2" d="M15,30c0,1.7-1.3,3-3,3s-3-1.3-3-3s1.3-3,3-3S15,28.3,15,30L15,30z"/>
			<path id="Stroke-31" class="st3" d="M15,30c0,1.7-1.3,3-3,3s-3-1.3-3-3s1.3-3,3-3S15,28.3,15,30L15,30z"/>
			<path id="Fill-32" class="st2" d="M27,30c0,1.7-1.3,3-3,3s-3-1.3-3-3s1.3-3,3-3S27,28.3,27,30L27,30z"/>
			<path id="Stroke-33" class="st3" d="M27,30c0,1.7-1.3,3-3,3s-3-1.3-3-3s1.3-3,3-3S27,28.3,27,30L27,30z"/>
			<path id="Fill-34" class="st2" d="M39,30c0,1.7-1.3,3-3,3s-3-1.3-3-3s1.3-3,3-3S39,28.3,39,30L39,30z"/>
			<path id="Stroke-35" class="st3" d="M39,30c0,1.7-1.3,3-3,3s-3-1.3-3-3s1.3-3,3-3S39,28.3,39,30L39,30z"/>
		</g>
	</g>
</g>
</svg>
