<?xml version="1.0" encoding="utf-8"?>
<!-- Generator: Adobe Illustrator 21.0.0, SVG Export Plug-In . SVG Version: 6.00 Build 0)  -->
<!DOCTYPE svg PUBLIC "-//W3C//DTD SVG 1.1//EN" "http://www.w3.org/Graphics/SVG/1.1/DTD/svg11.dtd">
<svg version="1.1" id="Layer_1" xmlns="http://www.w3.org/2000/svg" xmlns:xlink="http://www.w3.org/1999/xlink" x="0px" y="0px"
	 viewBox="0 0 60 60" style="enable-background:new 0 0 60 60;" xml:space="preserve">
<style type="text/css">
	.st0{fill:#FFFFFF;stroke:#36AEEA;stroke-miterlimit:10;}
	.st1{fill:none;stroke:#36AEEA;stroke-width:2;}
	.st2{fill:none;stroke:#36AEEA;stroke-width:2;stroke-linecap:round;}
	.st3{fill:#D0E8F9;stroke:#36AEEA;stroke-miterlimit:10;}
	.st4{fill:none;stroke:#36AEEA;stroke-width:2;stroke-linecap:round;stroke-dasharray:0,3;}
</style>
<title></title>
<desc></desc>
<g id="Page-1">
	<g id="Icons" transform="translate(-120.000000, -717.000000)">
		<g id="Rewind-Time" transform="translate(121.000000, 718.000000)">
			<path id="Fill-1" class="st0" d="M29,50C17.4,50,8,40.6,8,29S17.4,8,29,8s21,9.4,21,21S40.6,50,29,50L29,50z"/>
			<path id="Stroke-2" class="st1" d="M29,50C17.4,50,8,40.6,8,29S17.4,8,29,8s21,9.4,21,21S40.6,50,29,50L29,50z"/>
			<path id="Stroke-3" class="st2" d="M29,11v2 M29,45v2 M47,29h-2 M13,29h-2"/>
			<path id="Fill-4" class="st3" d="M32,28c0,1.7-1.3,3-3,3s-3-1.3-3-3s1.3-3,3-3S32,26.3,32,28L32,28z"/>
			<path id="Stroke-5" class="st2" d="M32,28c0,1.7-1.3,3-3,3s-3-1.3-3-3s1.3-3,3-3S32,26.3,32,28L32,28z"/>
			<path id="Stroke-6" class="st2" d="M29,25v-6 M26.9,30.1L18,39 M9,8c5.2-5,12.3-8,20-8c16,0,29,13,29,29 M17,8H9V0"/>
			<path id="Stroke-7" class="st4" d="M58,29c0,16-13,29-29,29S0,45,0,29"/>
		</g>
	</g>
</g>
</svg>
